<?xml version="1.0" encoding="UTF-8" standalone="no"?>
<!-- Generator: Adobe Illustrator 16.0.5, SVG Export Plug-In . SVG Version: 6.00 Build 0)  -->
<svg xmlns:dc="http://purl.org/dc/elements/1.1/" xmlns:cc="http://creativecommons.org/ns#" xmlns:rdf="http://www.w3.org/1999/02/22-rdf-syntax-ns#" xmlns:svg="http://www.w3.org/2000/svg" xmlns="http://www.w3.org/2000/svg" xmlns:sodipodi="http://sodipodi.sourceforge.net/DTD/sodipodi-0.dtd" xmlns:inkscape="http://www.inkscape.org/namespaces/inkscape" version="1.1" id="Ebene_1" x="0px" y="0px" width="582.07202" height="126.538" viewBox="5.999 4 582.072 126.538" enable-background="new 5.999 4 582.072 194" xml:space="preserve" sodipodi:docname="stadtlogo-muenster.svg" inkscape:version="0.92.4 (5da689c313, 2019-01-14)"><metadata id="metadata89"><rdf:RDF><cc:Work rdf:about=""><dc:format>image/svg+xml</dc:format><dc:type rdf:resource="http://purl.org/dc/dcmitype/StillImage"/><dc:title/></cc:Work></rdf:RDF></metadata><defs id="defs87">
</defs><sodipodi:namedview pagecolor="#ffffff" bordercolor="#666666" borderopacity="1" objecttolerance="10" gridtolerance="10" guidetolerance="10" inkscape:pageopacity="0" inkscape:pageshadow="2" inkscape:window-width="1680" inkscape:window-height="987" id="namedview85" showgrid="false" inkscape:zoom="1" inkscape:cx="-11.380031" inkscape:cy="110.61756" inkscape:window-x="-8" inkscape:window-y="-8" inkscape:window-maximized="1" inkscape:current-layer="Ebene_1"/>
<g id="g1050" transform="translate(-9.7851563e-4,177.63506)"><g transform="translate(0,-177.63506)" id="g40">
		<polygon points="5.999,130.538 5.999,4.001 213.882,4.001 213.882,130.538 " id="polygon38" style="fill:#aab315"/>
	</g><polygon transform="translate(0,-177.63506)" points="213.882,130.536 213.882,4 588.072,4 588.072,130.536 " id="polygon42" style="fill:#005778"/><polygon transform="translate(0,-177.63506)" points="235.258,117.71 235.258,54.224 239.576,54.224 239.576,117.71 " id="polygon44" style="fill:#ffffff"/><polygon transform="translate(0,-177.63506)" points="242.304,105.277 242.304,41.791 246.623,41.791 246.623,105.277 " id="polygon46" style="fill:#ffffff"/><polygon transform="translate(0,-177.63506)" points="249.356,117.71 249.356,27.591 253.672,27.591 253.672,117.71 " id="polygon48" style="fill:#ffffff"/><polygon transform="translate(0,-177.63506)" points="256.403,105.277 256.403,27.591 260.718,27.591 260.718,105.277 " id="polygon50" style="fill:#ffffff"/><polygon transform="translate(0,-177.63506)" points="263.449,117.71 263.449,27.591 267.764,27.591 267.764,117.71 " id="polygon52" style="fill:#ffffff"/><polygon transform="translate(0,-177.63506)" points="270.499,105.277 270.499,41.791 274.813,41.791 274.813,105.277 " id="polygon54" style="fill:#ffffff"/><polygon transform="translate(0,-177.63506)" points="277.544,117.71 277.544,54.224 281.866,54.224 281.866,117.71 " id="polygon56" style="fill:#ffffff"/><path d="m 42.933,-71.86006 c -2.875,0 -6.486,-0.674 -11.626,-2.145 v -3.975 c 4.833,1.166 7.4,1.527 10.341,1.527 6.238,0 9.237,-2.259 9.237,-7.032 0,-2.752 -1.162,-4.587 -3.914,-6.118 l -8.136,-4.709 c -4.772,-2.755 -6.913,-5.934 -6.913,-10.463 0,-7.093 5.076,-11.377 13.521,-11.377 2.751,0 5.442,0.551 10.276,2.079 v 3.856 c -3.486,-1.039 -6.484,-1.532 -9.361,-1.532 -5.563,0 -8.318,2.017 -8.318,6.115 0,2.879 1.286,4.408 5.629,6.793 l 6.67,3.672 c 4.769,2.63 6.909,5.992 6.909,10.886 -10e-4,7.591 -5.566,12.423 -14.315,12.423 z" id="path58" inkscape:connector-curvature="0" style="fill:#ffffff"/><polygon transform="translate(0,-177.63506)" points="91.08,66.319 78.599,66.319 78.599,105.227 72.236,105.227 72.236,66.319 59.759,66.319 59.759,62.036 91.08,62.036 " id="polygon60" style="fill:#ffffff"/><path d="m 118.976,-71.56106 -5.016,-14.622 H 98.845 l -4.832,14.622 h -5.872 l 15.909,-43.19 h 6.3 l 15.234,43.19 z m -12.601,-37.193 -6.118,18.414 h 12.238 z" id="path62" inkscape:connector-curvature="0" style="fill:#ffffff"/><path d="m 155.314,-74.79706 c -3.482,1.713 -7.338,2.387 -14.374,2.387 h -10.277 v -43.19 h 11.985 c 8.018,0 11.016,0.55 14.439,2.751 5.506,3.429 8.441,9.726 8.441,18.17 0.002,9.666 -3.483,16.454 -10.214,19.882 z m -3.36,-34.991 c -2.331,-1.163 -4.837,-1.59 -9.426,-1.59 h -5.507 v 34.746 h 4.833 c 4.712,0 7.586,-0.549 10.1,-1.896 4.461,-2.508 6.909,-8.012 6.909,-15.598 0.001,-7.771 -2.448,-13.337 -6.909,-15.662 z" id="path64" inkscape:connector-curvature="0" style="fill:#ffffff"/><polygon transform="translate(0,-177.63506)" points="199.664,66.319 187.187,66.319 187.187,105.227 180.821,105.227 180.821,66.319 168.344,66.319 168.344,62.036 199.664,62.036 " id="polygon66" style="fill:#ffffff"/><polygon transform="translate(0,-177.63506)" points="327.215,105.266 321.113,105.266 308.295,66.319 308.295,105.266 303.239,105.266 303.239,61.756 312.607,61.756 324.87,98.299 336.706,61.756 345.823,61.756 345.823,105.266 339.908,105.266 339.908,66.009 " id="polygon68" style="fill:#ffffff"/><path d="m 383.855,-76.37506 c -2.964,3.202 -7.027,4.684 -12.887,4.684 -10.78,0 -16.267,-5.301 -16.267,-15.714 v -28.474 h 6.411 v 28.287 c 0,7.766 3.259,11.337 10.354,11.337 7.209,0 10.784,-3.818 10.784,-11.46 v -28.164 h 5.177 v 27.241 c 10e-4,6.652 -0.737,9.302 -3.572,12.263 z m -18.425,-44.25 c -2.53,0 -3.761,-1.168 -3.761,-3.571 0,-2.59 1.295,-3.885 3.819,-3.885 2.404,0 3.638,1.295 3.638,3.698 0,2.404 -1.355,3.758 -3.696,3.758 z m 11.643,0 c -2.526,0 -3.76,-1.168 -3.76,-3.571 0,-2.59 1.295,-3.885 3.821,-3.885 2.4,0 3.633,1.295 3.633,3.698 10e-4,2.404 -1.353,3.758 -3.694,3.758 z" id="path70" inkscape:connector-curvature="0" style="fill:#ffffff"/><polygon transform="translate(0,-177.63506)" points="404.683,61.756 424.467,97.992 424.467,61.756 429.52,61.756 429.52,105.266 421.878,105.266 401.726,68.41 401.726,105.266 396.674,105.266 396.674,61.756 " id="polygon72" style="fill:#ffffff"/><path d="m 447.824,-71.81506 c -2.896,0 -6.532,-0.678 -11.71,-2.157 v -4.007 c 4.87,1.17 7.461,1.541 10.415,1.541 6.285,0 9.308,-2.282 9.308,-7.086 0,-2.774 -1.171,-4.622 -3.945,-6.164 l -8.192,-4.747 c -4.81,-2.77 -6.97,-5.976 -6.97,-10.535 0,-7.15 5.117,-11.464 13.619,-11.464 2.772,0 5.487,0.555 10.354,2.097 v 3.882 c -3.509,-1.048 -6.535,-1.541 -9.426,-1.541 -5.608,0 -8.386,2.034 -8.386,6.162 0,2.896 1.296,4.435 5.673,6.843 l 6.716,3.695 c 4.812,2.649 6.963,6.039 6.963,10.972 0,7.639 -5.605,12.509 -14.419,12.509 z" id="path74" inkscape:connector-curvature="0" style="fill:#ffffff"/><polygon transform="translate(0,-177.63506)" points="495.524,66.071 482.953,66.071 482.953,105.266 476.539,105.266 476.539,66.071 463.973,66.071 463.973,61.756 495.524,61.756 " id="polygon76" style="fill:#ffffff"/><polygon transform="translate(0,-177.63506)" points="524.677,66.009 507.545,66.009 507.545,80.493 521.229,80.493 521.229,84.743 507.545,84.743 507.545,101.014 525.723,101.014 525.723,105.266 501.134,105.266 501.134,61.756 524.677,61.756 " id="polygon78" style="fill:#ffffff"/><path d="m 554.689,-72.36906 -14.541,-20.832 h -1.668 v 20.832 h -6.347 v -43.51 h 11.097 c 5.974,0 8.317,0.369 10.655,1.725 3.084,1.849 4.688,4.87 4.688,8.938 0,6.841 -3.822,10.782 -11.338,11.647 l 15.529,21.2 z m -11.4,-39.564 h -4.81 v 15.346 h 4.686 c 5.854,0 8.751,-2.59 8.751,-7.83 0,-5.364 -2.526,-7.516 -8.627,-7.516 z" id="path80" inkscape:connector-curvature="0" style="fill:#ffffff"/></g>
</svg>